<?xml version="1.0" encoding="UTF-8" standalone="no"?>
<svg
   xmlns:dc="http://purl.org/dc/elements/1.1/"
   xmlns:cc="http://creativecommons.org/ns#"
   xmlns:rdf="http://www.w3.org/1999/02/22-rdf-syntax-ns#"
   xmlns:svg="http://www.w3.org/2000/svg"
   xmlns="http://www.w3.org/2000/svg"
   xmlns:sodipodi="http://sodipodi.sourceforge.net/DTD/sodipodi-0.dtd"
   xmlns:inkscape="http://www.inkscape.org/namespaces/inkscape"
   version="1.1"
   x="0px"
   y="0px"
   viewBox="0 0 100 100.1"
   enable-background="new 0 0 100 100.1"
   xml:space="preserve"
   id="svg4"
   sodipodi:docname="Sheep_(166136)_-_The_Noun_Project_2.svg"
   inkscape:version="0.92.4 (5da689c313, 2019-01-14)"><metadata
     id="metadata10"><rdf:RDF><cc:Work
         rdf:about=""><dc:format>image/svg+xml</dc:format><dc:type
           rdf:resource="http://purl.org/dc/dcmitype/StillImage" /><dc:title></dc:title></cc:Work></rdf:RDF></metadata><defs
     id="defs8" /><sodipodi:namedview
     pagecolor="#ffffff"
     bordercolor="#666666"
     borderopacity="1"
     objecttolerance="10"
     gridtolerance="10"
     guidetolerance="10"
     inkscape:pageopacity="0"
     inkscape:pageshadow="2"
     inkscape:window-width="1920"
     inkscape:window-height="1017"
     id="namedview6"
     showgrid="false"
     inkscape:zoom="3.3342098"
     inkscape:cx="143.50222"
     inkscape:cy="121.79154"
     inkscape:window-x="-8"
     inkscape:window-y="-8"
     inkscape:window-maximized="1"
     inkscape:current-layer="svg4" /><g
     id="g4533"><path
       inkscape:connector-curvature="0"
       id="path4526"
       d="m 70.382812,20.147245 -0.874815,1.13991 -0.159057,1.298967 -0.05302,0.795286 -1.219439,1.13991 -0.371133,0.768777 1.378495,2.650953 2.624444,0.106038 5.779079,-1.351986 1.351986,-1.829158 -0.795286,-1.961705 -1.405006,-0.954343 -1.245948,-1.908687 -3.207653,-0.318114 z"
       style="fill:#ffffff;stroke:none;stroke-width:1px;stroke-linecap:butt;stroke-linejoin:miter;stroke-opacity:1;fill-opacity:1" /><path
       inkscape:connector-curvature="0"
       id="path4528"
       d="m 56.310193,26.244419 -3.524073,2.099448 -3.599054,-3.224152 -4.648777,-2.174428 -5.923443,0.524862 -4.048935,2.174428 -1.274665,1.349645 -4.573797,-1.424626 -2.999212,0.674823 -3.599053,2.099448 -1.649567,2.399369 -3.299132,0.07498 -3.299133,1.349645 -2.174428,1.349646 -4.3488562,1.724546 -2.3243888,2.774271 -1.2746648,5.47356 1.7245465,4.948699 2.9242311,2.399369 2.0994482,0.974744 -0.7498031,3.973955 1.0497241,4.348856 2.849251,3.074192 2.999211,1.424625 2.249408,4.273876 5.24862,2.774271 5.3236,-1.049724 6.298344,1.649566 4.723758,-1.124704 4.123916,-2.924231 4.348856,1.499606 4.198896,-1.049724 2.849251,-1.949488 3.524073,2.399369 5.923443,-0.14996 5.698501,-3.149172 1.799527,-5.24862 1.949487,-3.973955 0.374902,-3.823995 2.849251,-4.348856 0.374901,-4.123916 -1.424625,-2.999211 -10.722181,-3.674034 1.049724,-8.847673 z"
       style="fill:#ffffff;stroke:none;stroke-width:1px;stroke-linecap:butt;stroke-linejoin:miter;stroke-opacity:1;fill-opacity:1" /><path
       id="path2"
       d="M97.2,36.1c-0.6-2.3-6.6-5.8-12.9-8.3c5-1.3,10.5-3.4,4.7-4.9c-4.1-1.1-7.6-0.8-10.3-0.2c-0.3-0.5-0.8-0.9-1.3-1.2  c0-0.1,0-0.1-0.1-0.2c-0.5-1.3-1.7-2.1-3.1-2.1c-0.3,0-0.5,0-0.8,0.1c-0.9-0.5-1.9-0.6-2.8-0.2c-1.5,0.6-2.3,2.1-2.1,3.6  C68,23,67.6,23.4,67.3,24c0,0.1-0.1,0.1-0.1,0.2c-3.1-1-7.1-1.6-11.4-0.5c-3.1,0.8-3,1.7-1.5,2.6c-0.5,0.3-1,0.6-1.5,1  c-2.5-3.2-6.3-5.1-10.4-5.1c-3.4,0-6.7,1.4-9.2,3.8c-1.4-0.7-2.9-1-4.4-1c-3.5,0-6.8,1.8-8.7,4.8c-0.3,0-0.6,0-0.8,0  c-2.6,0-5.1,1-7.1,2.8c-5.2,0.6-9.1,5-9.1,10.3c0,4.2,2.5,7.9,6.3,9.5c-0.3,1-0.4,2-0.4,3c0,4.4,2.8,8.3,6.9,9.8  c0.9,2.8,2.9,5,5.4,6.2v10.2c0,1.3,1,2.3,2.3,2.3c1.3,0,2.3-1,2.3-2.3v-9.2c1.1,0,2.2-0.2,3.3-0.6c0.2,0.1,0.4,0.2,0.6,0.3v9.5  c0,1.3,1,2.3,2.3,2.3h0c1.3,0,2.3-1,2.3-2.3V73c0.3,0,0.6,0,0.9,0c3.5,0,6.9-1.4,9.3-3.9c1.5,0.7,3.1,1.1,4.7,1.1  c2.4,0,4.8-0.8,6.6-2.4c1.4,1.1,3,1.9,4.7,2.2v11.3c0,1.3,1,2.3,2.3,2.3s2.3-1,2.3-2.3V69.9c1.4-0.4,2.7-1,3.8-1.9v13.4  c0,1.3,1,2.3,2.3,2.3s2.3-1,2.3-2.3V61c1.6-1.9,2.4-4.2,2.4-6.6c0-0.3,0-0.7-0.1-1.1c2.1-2,3.4-4.7,3.4-7.6c0-1.1-0.2-2.1-0.5-3.1  C91.8,42.9,98.2,39.8,97.2,36.1z M68.8,24.7c0.2-0.4,0.5-0.7,0.9-0.9l0.8-0.3l-0.3-0.8c-0.3-0.9,0.1-1.9,1-2.2  c0.2-0.1,0.4-0.1,0.6-0.1c0.4,0,0.7,0.1,1,0.3l0.4,0.3l0.4-0.2c0.2-0.1,0.4-0.1,0.6-0.1c0.7,0,1.3,0.4,1.6,1.1  c0,0.1,0.1,0.2,0.1,0.4l0.1,0.5l0.5,0.1c0.5,0.2,0.9,0.5,1.1,1c0.2,0.4,0.2,0.9,0,1.3c-0.2,0.4-0.5,0.7-0.9,0.9  c-0.2,0.1-0.4,0.1-0.6,0.1c-0.4,0-0.8-0.1-1.1-0.4l-0.5-0.4l-0.5,0.4c-0.1,0.1-0.3,0.2-0.5,0.3c-0.3,0.1-0.6,0.1-0.9,0.1L72,26.1  l-0.3,0.4c-0.2,0.2-0.4,0.4-0.7,0.5c-0.9,0.3-1.9-0.1-2.2-1C68.6,25.5,68.6,25.1,68.8,24.7z M74.5,52.3l-0.3,0.3l0.1,0.4  c0.1,0.5,0.1,0.9,0.1,1.3c0,2.5-1.1,4.9-3,6.6l-0.2,0.2L71,61.4c-0.6,3.2-2.9,5.8-5.9,6.7v-5.1c1.5-0.6,2.7-1.9,3.2-3.4  c0.1-0.4-0.1-0.9-0.5-1c-0.4-0.1-0.9,0.1-1,0.5c-0.6,1.7-2.2,2.8-4,2.8c-1.8,0-3.4-1.1-4-2.8c-0.1-0.4-0.6-0.6-1-0.5  c-0.4,0.1-0.6,0.6-0.5,1c0.5,1.6,1.7,2.8,3.2,3.4v5.3c-1.5-0.3-3-1.1-4.2-2.2l-0.6-0.5l-0.6,0.5c-1.6,1.6-3.8,2.5-6.1,2.5  c-1.6,0-3.1-0.4-4.4-1.2L44.2,67l-0.4,0.5c-2.2,2.4-5.3,3.8-8.6,3.8c-2,0-3.9-0.5-5.6-1.5l-0.3-0.2l-0.4,0.1c-1,0.4-2,0.6-3.1,0.6  v-5.4c1.5-0.6,2.7-1.9,3.2-3.4c0.1-0.4-0.1-0.9-0.5-1c-0.4-0.1-0.9,0.1-1,0.5c-0.6,1.7-2.2,2.8-4,2.8c-1.8,0-3.4-1.1-4-2.8  c-0.1-0.4-0.6-0.6-1-0.5c-0.4,0.1-0.6,0.6-0.5,1c0.6,1.6,1.7,2.8,3.2,3.4v4.2c-1.9-1.1-3.4-3-4-5.2l-0.1-0.4l-0.4-0.1  c-3.7-1.1-6.2-4.5-6.2-8.3c0-1.1,0.2-2.1,0.6-3.1l0.3-0.8L10.7,51c-3.6-1.2-6-4.5-6-8.3c0-4.5,3.4-8.3,7.9-8.7l0.3,0l0.2-0.2  c1.6-1.6,3.8-2.5,6.1-2.5c0.3,0,0.7,0,1.2,0.1l0.5,0.1l0.3-0.5c1.6-2.7,4.5-4.4,7.6-4.4c1.5,0,2.9,0.4,4.2,1.1l0.6,0.3l0.4-0.5  c2.2-2.3,5.2-3.7,8.4-3.7c3.9,0,7.5,1.9,9.6,5.2l0.5,0.8l0.7-0.7c0.8-0.8,1.8-1.5,2.9-1.9c3.3,1.4,8.6,2.5,9.8,2.8  c-1.1,3.3-1.2,6.9-1.2,6.9c-0.5,4.3,9.6,5.5,9.6,5.5c0.9,0.1,1.9,0.1,2.7,0.2c0.4,1,0.6,2,0.6,3.1C77.6,48.3,76.5,50.7,74.5,52.3z" /></g></svg>